<!-- sprite.svg -->
<svg style="display: none;">
    <!-- иконка сердце -->
    <symbol id='heart' xmlns="http://www.w3.org/2000/svg" width="23" height="21" viewBox="0 0 23 21">
        <path
            d="M1.76032 4.80177C2.01474 4.18394 2.38764 3.62255 2.85775 3.14968C3.32785 2.67681 3.88593 2.3017 4.50015 2.04578C5.11436 1.78986 5.77268 1.65814 6.4375 1.65814C7.10232 1.65814 7.76063 1.78986 8.37485 2.04578C8.98906 2.3017 9.54715 2.67681 10.0172 3.14968L11.5 4.64118L12.9827 3.14968C13.9322 2.19467 15.2198 1.65816 16.5625 1.65816C17.9052 1.65816 19.1928 2.19467 20.1422 3.14968C21.0917 4.10469 21.625 5.39997 21.625 6.75055C21.625 8.10114 21.0917 9.39641 20.1422 10.3514L11.5 19.0447L2.85775 10.3514C2.38764 9.87855 2.01474 9.31717 1.76032 8.69933C1.5059 8.08149 1.37495 7.4193 1.37495 6.75055C1.37495 6.08181 1.5059 5.41961 1.76032 4.80177Z"
            fill="currentColor" stroke="#E02424" stroke-width="2" stroke-linecap="round" stroke-linejoin="round" />
    </symbol>
    
    <!-- спрайт календаря -->
    <symbol id="calendar" xmlns="http://www.w3.org/2000/svg" width="18" height="18" viewBox="0 0 18 18">
        <g id="calendar-1">
            <g id="Vector">
                <path
                    d="M14.25 15.75H3.75C3.35218 15.75 2.97064 15.592 2.68934 15.3107C2.40804 15.0294 2.25 14.6478 2.25 14.25V5.25C2.25 4.85218 2.40804 4.47064 2.68934 4.18934C2.97064 3.90804 3.35218 3.75 3.75 3.75H6H12H14.25C14.6478 3.75 15.0294 3.90804 15.3107 4.18934C15.592 4.47064 15.75 4.85218 15.75 5.25V14.25C15.75 14.6478 15.592 15.0294 15.3107 15.3107C15.0294 15.592 14.6478 15.75 14.25 15.75Z"
                    fill="currentColor" />
                <path
                    d="M6 5.25V2.25M12 5.25V2.25M5.25 8.25H12.75M3.75 15.75H14.25C14.6478 15.75 15.0294 15.592 15.3107 15.3107C15.592 15.0294 15.75 14.6478 15.75 14.25V5.25C15.75 4.85218 15.592 4.47064 15.3107 4.18934C15.0294 3.90804 14.6478 3.75 14.25 3.75H3.75C3.35218 3.75 2.97064 3.90804 2.68934 4.18934C2.40804 4.47064 2.25 4.85218 2.25 5.25V14.25C2.25 14.6478 2.40804 15.0294 2.68934 15.3107C2.97064 15.592 3.35218 15.75 3.75 15.75Z"
                    stroke="#6B7280" stroke-width="2" stroke-linecap="round" stroke-linejoin="round"
                    fill="white" />
            </g>
        </g>
    </symbol>
    
    <!-- иконка поиск -->
    <symbol id="search" xmlns="http://www.w3.org/2000/svg" width="16" height="17" viewBox="0 0 16 17"
        fill="none">
        <path
            d="M14.75 15.25L10.25 10.75M11.75 7C11.75 7.68944 11.6142 8.37213 11.3504 9.00909C11.0865 9.64605 10.6998 10.2248 10.2123 10.7123C9.7248 11.1998 9.14605 11.5865 8.50909 11.8504C7.87213 12.1142 7.18944 12.25 6.5 12.25C5.81056 12.25 5.12787 12.1142 4.49091 11.8504C3.85395 11.5865 3.2752 11.1998 2.78769 10.7123C2.30018 10.2248 1.91347 9.64605 1.64963 9.00909C1.3858 8.37213 1.25 7.68944 1.25 7C1.25 5.60761 1.80312 4.27226 2.78769 3.28769C3.77226 2.30312 5.10761 1.75 6.5 1.75C7.89239 1.75 9.22774 2.30312 10.2123 3.28769C11.1969 4.27226 11.75 5.60761 11.75 7Z"
            stroke="#6B7280" stroke-width="2" stroke-linecap="round" stroke-linejoin="round" />
    </symbol>
    
    <!-- clipboard-list -->
    <symbol id='clipboard-list' xmlns="http://www.w3.org/2000/svg" width="14" height="14" viewBox="0 0 14 14"
        fill="none">
        <path
            d="M6.29998 1.40039C6.11432 1.40039 5.93628 1.47414 5.805 1.60542C5.67373 1.73669 5.59998 1.91474 5.59998 2.10039C5.59998 2.28604 5.67373 2.46409 5.805 2.59537C5.93628 2.72664 6.11432 2.80039 6.29998 2.80039H7.69998C7.88563 2.80039 8.06367 2.72664 8.19495 2.59537C8.32623 2.46409 8.39998 2.28604 8.39998 2.10039C8.39998 1.91474 8.32623 1.73669 8.19495 1.60542C8.06367 1.47414 7.88563 1.40039 7.69998 1.40039H6.29998Z"
            fill="#3F83F8" />
        <path fill-rule="evenodd" clip-rule="evenodd"
            d="M2.80005 3.49961C2.80005 3.12831 2.94755 2.77221 3.2101 2.50966C3.47265 2.24711 3.82875 2.09961 4.20005 2.09961C4.20005 2.65656 4.4213 3.19071 4.81512 3.58453C5.20895 3.97836 5.74309 4.19961 6.30005 4.19961H7.70005C8.257 4.19961 8.79115 3.97836 9.18497 3.58453C9.5788 3.19071 9.80005 2.65656 9.80005 2.09961C10.1714 2.09961 10.5274 2.24711 10.79 2.50966C11.0525 2.77221 11.2 3.12831 11.2 3.49961V11.1996C11.2 11.5709 11.0525 11.927 10.79 12.1896C10.5274 12.4521 10.1714 12.5996 9.80005 12.5996H4.20005C3.82875 12.5996 3.47265 12.4521 3.2101 12.1896C2.94755 11.927 2.80005 11.5709 2.80005 11.1996V3.49961ZM4.90005 6.29961C4.7144 6.29961 4.53635 6.37336 4.40507 6.50463C4.2738 6.63591 4.20005 6.81396 4.20005 6.99961C4.20005 7.18526 4.2738 7.36331 4.40507 7.49458C4.53635 7.62586 4.7144 7.69961 4.90005 7.69961H4.90705C5.0927 7.69961 5.27075 7.62586 5.40202 7.49458C5.5333 7.36331 5.60705 7.18526 5.60705 6.99961C5.60705 6.81396 5.5333 6.63591 5.40202 6.50463C5.27075 6.37336 5.0927 6.29961 4.90705 6.29961H4.90005ZM7.00005 6.29961C6.8144 6.29961 6.63635 6.37336 6.50507 6.50463C6.3738 6.63591 6.30005 6.81396 6.30005 6.99961C6.30005 7.18526 6.3738 7.36331 6.50507 7.49458C6.63635 7.62586 6.8144 7.69961 7.00005 7.69961H9.10005C9.2857 7.69961 9.46375 7.62586 9.59502 7.49458C9.7263 7.36331 9.80005 7.18526 9.80005 6.99961C9.80005 6.81396 9.7263 6.63591 9.59502 6.50463C9.46375 6.37336 9.2857 6.29961 9.10005 6.29961H7.00005ZM4.90005 9.09961C4.7144 9.09961 4.53635 9.17336 4.40507 9.30463C4.2738 9.43591 4.20005 9.61396 4.20005 9.79961C4.20005 9.98526 4.2738 10.1633 4.40507 10.2946C4.53635 10.4259 4.7144 10.4996 4.90005 10.4996H4.90705C5.0927 10.4996 5.27075 10.4259 5.40202 10.2946C5.5333 10.1633 5.60705 9.98526 5.60705 9.79961C5.60705 9.61396 5.5333 9.43591 5.40202 9.30463C5.27075 9.17336 5.0927 9.09961 4.90705 9.09961H4.90005ZM7.00005 9.09961C6.8144 9.09961 6.63635 9.17336 6.50507 9.30463C6.3738 9.43591 6.30005 9.61396 6.30005 9.79961C6.30005 9.98526 6.3738 10.1633 6.50507 10.2946C6.63635 10.4259 6.8144 10.4996 7.00005 10.4996H9.10005C9.2857 10.4996 9.46375 10.4259 9.59502 10.2946C9.7263 10.1633 9.80005 9.98526 9.80005 9.79961C9.80005 9.61396 9.7263 9.43591 9.59502 9.30463C9.46375 9.17336 9.2857 9.09961 9.10005 9.09961H7.00005Z"
            fill="#3F83F8" />
    </symbol>
    
    <!-- спрайт icon-sort -->
     <symbol id="icon-sort" xmlns="http://www.w3.org/2000/svg" width="14" height="13" viewBox="0 0 14 13">
        <path id="Vector"
            d="M1.39998 0.899994C1.1878 0.899994 0.984319 0.984279 0.83429 1.13431C0.684261 1.28434 0.599976 1.48782 0.599976 1.69999C0.599976 1.91217 0.684261 2.11565 0.83429 2.26568C0.984319 2.41571 1.1878 2.49999 1.39998 2.49999H10.2C10.4121 2.49999 10.6156 2.41571 10.7657 2.26568C10.9157 2.11565 11 1.91217 11 1.69999C11 1.48782 10.9157 1.28434 10.7657 1.13431C10.6156 0.984279 10.4121 0.899994 10.2 0.899994H1.39998ZM1.39998 4.09999C1.1878 4.09999 0.984319 4.18428 0.83429 4.33431C0.684261 4.48434 0.599976 4.68782 0.599976 4.89999C0.599976 5.11217 0.684261 5.31565 0.83429 5.46568C0.984319 5.61571 1.1878 5.69999 1.39998 5.69999H6.99998C7.21215 5.69999 7.41563 5.61571 7.56566 5.46568C7.71569 5.31565 7.79998 5.11217 7.79998 4.89999C7.79998 4.68782 7.71569 4.48434 7.56566 4.33431C7.41563 4.18428 7.21215 4.09999 6.99998 4.09999H1.39998ZM1.39998 7.29999C1.1878 7.29999 0.984319 7.38428 0.83429 7.53431C0.684261 7.68434 0.599976 7.88782 0.599976 8.09999C0.599976 8.31217 0.684261 8.51565 0.83429 8.66568C0.984319 8.81571 1.1878 8.89999 1.39998 8.89999H4.59998C4.81215 8.89999 5.01563 8.81571 5.16566 8.66568C5.31569 8.51565 5.39998 8.31217 5.39998 8.09999C5.39998 7.88782 5.31569 7.68434 5.16566 7.53431C5.01563 7.38428 4.81215 7.29999 4.59998 7.29999H1.39998ZM11 4.89999C11 4.68782 10.9157 4.48434 10.7657 4.33431C10.6156 4.18428 10.4121 4.09999 10.2 4.09999C9.9878 4.09999 9.78432 4.18428 9.63429 4.33431C9.48426 4.48434 9.39997 4.68782 9.39997 4.89999V9.36879L8.36557 8.33439C8.21469 8.18867 8.01261 8.10803 7.80285 8.10986C7.5931 8.11168 7.39245 8.19581 7.24412 8.34414C7.09579 8.49247 7.01166 8.69312 7.00984 8.90287C7.00801 9.11263 7.08865 9.31471 7.23438 9.46559L9.63438 11.8656C9.7844 12.0156 9.98784 12.0998 10.2 12.0998C10.4121 12.0998 10.6156 12.0156 10.7656 11.8656L13.1656 9.46559C13.3113 9.31471 13.3919 9.11263 13.3901 8.90287C13.3883 8.69312 13.3042 8.49247 13.1558 8.34414C13.0075 8.19581 12.8069 8.11168 12.5971 8.10986C12.3873 8.10803 12.1853 8.18867 12.0344 8.33439L11 9.36879V4.89999Z"
            fill="#1F2A37" />
    </symbol>

    <!-- иконка signal  -->
    <symbol id="signal" xmlns="http://www.w3.org/2000/svg" width="14" height="10" viewBox="0 0 14 10" fill="none">
        <path fill-rule="evenodd" clip-rule="evenodd" d="M3.535 0.574762C3.66623 0.706032 3.73995 0.884048 3.73995 1.06966C3.73995 1.25528 3.66623 1.43329 3.535 1.56456C3.07994 2.01958 2.71896 2.55977 2.47268 3.1543C2.22641 3.74883 2.09965 4.38604 2.09965 5.02956C2.09965 5.67308 2.22641 6.3103 2.47268 6.90483C2.71896 7.49936 3.07994 8.03955 3.535 8.49456C3.60186 8.55914 3.65518 8.63638 3.69187 8.72178C3.72856 8.80718 3.74787 8.89904 3.74868 8.99198C3.74948 9.08493 3.73177 9.1771 3.69658 9.26313C3.66138 9.34916 3.6094 9.42731 3.54368 9.49304C3.47795 9.55876 3.3998 9.61074 3.31377 9.64594C3.22774 9.68114 3.13556 9.69885 3.04262 9.69804C2.94967 9.69723 2.85782 9.67792 2.77242 9.64123C2.68701 9.60455 2.60977 9.55122 2.5452 9.48436C1.96018 8.89935 1.49612 8.20484 1.17951 7.44049C0.862902 6.67613 0.699945 5.8569 0.699945 5.02956C0.699945 4.20223 0.862902 3.383 1.17951 2.61864C1.49612 1.85428 1.96018 1.15977 2.5452 0.574762C2.67647 0.443533 2.85449 0.369812 3.0401 0.369812C3.22571 0.369812 3.40373 0.443533 3.535 0.574762ZM10.465 0.574762C10.5963 0.443533 10.7743 0.369812 10.9599 0.369812C11.1455 0.369812 11.3235 0.443533 11.4548 0.574762C12.0398 1.15977 12.5039 1.85428 12.8205 2.61864C13.1371 3.383 13.3001 4.20223 13.3001 5.02956C13.3001 5.8569 13.1371 6.67613 12.8205 7.44049C12.5039 8.20484 12.0398 8.89935 11.4548 9.48436C11.3902 9.55122 11.313 9.60455 11.2276 9.64123C11.1422 9.67792 11.0503 9.69723 10.9574 9.69804C10.8644 9.69885 10.7723 9.68114 10.6862 9.64594C10.6002 9.61074 10.522 9.55876 10.4563 9.49304C10.3906 9.42731 10.3386 9.34916 10.3034 9.26313C10.2682 9.1771 10.2505 9.08493 10.2513 8.99198C10.2521 8.89904 10.2714 8.80718 10.3081 8.72178C10.3448 8.63638 10.3981 8.55914 10.465 8.49456C10.9201 8.03955 11.281 7.49936 11.5273 6.90483C11.7736 6.3103 11.9004 5.67308 11.9004 5.02956C11.9004 4.38604 11.7736 3.74883 11.5273 3.1543C11.281 2.55977 10.9201 2.01958 10.465 1.56456C10.3338 1.43329 10.26 1.25528 10.26 1.06966C10.26 0.884048 10.3338 0.706032 10.465 0.574762ZM5.5153 2.55436C5.64653 2.68563 5.72025 2.86365 5.72025 3.04926C5.72025 3.23488 5.64653 3.41289 5.5153 3.54416C5.32026 3.73917 5.16554 3.97069 5.05999 4.2255C4.95443 4.4803 4.9001 4.75341 4.9001 5.02921C4.9001 5.30502 4.95443 5.57812 5.05999 5.83293C5.16554 6.08774 5.32026 6.31926 5.5153 6.51426C5.58029 6.5793 5.63184 6.6565 5.66699 6.74146C5.70215 6.82642 5.72022 6.91747 5.72019 7.00941C5.72016 7.10135 5.70202 7.19239 5.6668 7.27732C5.63159 7.36226 5.57999 7.43942 5.51495 7.50441C5.44991 7.5694 5.37271 7.62095 5.28775 7.6561C5.2028 7.69126 5.11175 7.70934 5.0198 7.7093C4.92786 7.70927 4.83682 7.69113 4.75189 7.65592C4.66696 7.6207 4.58979 7.5691 4.5248 7.50406C3.86865 6.84772 3.50005 5.95764 3.50005 5.02956C3.50005 4.10149 3.86865 3.21141 4.5248 2.55506C4.58981 2.48998 4.66701 2.43835 4.75199 2.40312C4.83697 2.36789 4.92806 2.34976 5.02005 2.34976C5.11204 2.34976 5.20313 2.36789 5.28811 2.40312C5.37309 2.43835 5.45029 2.48998 5.5153 2.55506V2.55436ZM8.4847 2.55436C8.54971 2.48928 8.62691 2.43765 8.71189 2.40242C8.79687 2.36719 8.88796 2.34906 8.97995 2.34906C9.07194 2.34906 9.16303 2.36719 9.24801 2.40242C9.33299 2.43765 9.41019 2.48928 9.4752 2.55436C9.8003 2.87938 10.0582 3.26526 10.2341 3.68996C10.4101 4.11466 10.5007 4.56986 10.5007 5.02956C10.5007 5.48927 10.4101 5.94447 10.2341 6.36917C10.0582 6.79387 9.8003 7.17975 9.4752 7.50476C9.34385 7.63611 9.1657 7.7099 8.97995 7.7099C8.7942 7.7099 8.61605 7.63611 8.4847 7.50476C8.35335 7.37341 8.27956 7.19527 8.27956 7.00951C8.27956 6.82376 8.35335 6.64561 8.4847 6.51426C8.87839 6.12045 9.09955 5.58641 9.09955 5.02956C9.09955 4.47272 8.87839 3.93867 8.4847 3.54486C8.41962 3.47985 8.36799 3.40265 8.33276 3.31767C8.29753 3.23269 8.2794 3.1416 8.2794 3.04961C8.2794 2.95762 8.29753 2.86653 8.33276 2.78155C8.36799 2.69658 8.41962 2.61937 8.4847 2.55436ZM7 4.32956C7.18565 4.32956 7.3637 4.40331 7.49497 4.53459C7.62625 4.66586 7.7 4.84391 7.7 5.02956V5.03656C7.7 5.22221 7.62625 5.40026 7.49497 5.53154C7.3637 5.66281 7.18565 5.73656 7 5.73656C6.81435 5.73656 6.6363 5.66281 6.50503 5.53154C6.37375 5.40026 6.3 5.22221 6.3 5.03656V5.02956C6.3 4.84391 6.37375 4.66586 6.50503 4.53459C6.6363 4.40331 6.81435 4.32956 7 4.32956Z" fill="#1C64F2"/>
    </symbol>

    <!--trending-up  -->
    <symbol id='trending-up' xmlns="http://www.w3.org/2000/svg" width="18" height="18" viewBox="0 0 18 18" fill="none">
        <g id="trending-up">
        <path id="Vector" fill-rule="evenodd" clip-rule="evenodd" d="M10.8 6.3C10.5613 6.3 10.3324 6.20518 10.1636 6.0364C9.9948 5.86761 9.89998 5.63869 9.89998 5.4C9.89998 5.16131 9.9948 4.93239 10.1636 4.7636C10.3324 4.59482 10.5613 4.5 10.8 4.5H15.3C15.5387 4.5 15.7676 4.59482 15.9364 4.7636C16.1052 4.93239 16.2 5.16131 16.2 5.4V9.9C16.2 10.1387 16.1052 10.3676 15.9364 10.5364C15.7676 10.7052 15.5387 10.8 15.3 10.8C15.0613 10.8 14.8324 10.7052 14.6636 10.5364C14.4948 10.3676 14.4 10.1387 14.4 9.9V7.5726L10.5363 11.4363C10.3675 11.605 10.1386 11.6998 9.89998 11.6998C9.66133 11.6998 9.43245 11.605 9.26368 11.4363L7.19998 9.3726L3.33628 13.2363C3.16653 13.4002 2.93919 13.491 2.70321 13.4889C2.46724 13.4869 2.24151 13.3922 2.07464 13.2253C1.90777 13.0585 1.81312 12.8327 1.81107 12.5968C1.80902 12.3608 1.89973 12.1334 2.06368 11.9637L6.56368 7.4637C6.73245 7.29498 6.96133 7.20019 7.19998 7.20019C7.43862 7.20019 7.6675 7.29498 7.83628 7.4637L9.89998 9.5274L13.1274 6.3H10.8Z" fill="#6B7280"/>
        </g>
    </symbol>

    <!-- info -->
    <symbol id='info' xmlns="http://www.w3.org/2000/svg" width="18" height="19" viewBox="0 0 18 19" fill="none">
        <g id="information-circle">
        <path id="Vector" d="M15.7 9.49999C15.7 11.2769 14.9941 12.9811 13.7376 14.2376C12.4811 15.4941 10.7769 16.2 8.99999 16.2C7.22304 16.2 5.51887 15.4941 4.26237 14.2376C3.00588 12.9811 2.29999 11.2769 2.29999 9.49999C2.29999 7.72304 3.00588 6.01887 4.26237 4.76237C5.51887 3.50588 7.22304 2.79999 8.99999 2.79999C10.7769 2.79999 12.4811 3.50588 13.7376 4.76237C14.9941 6.01887 15.7 7.72304 15.7 9.49999ZM9.98994 6.88994C10.2525 6.62739 10.4 6.27129 10.4 5.89999C10.4 5.52868 10.2525 5.17259 9.98994 4.91004C9.72739 4.64749 9.37129 4.49999 8.99999 4.49999C8.62868 4.49999 8.27259 4.64749 8.01004 4.91004C7.74749 5.17259 7.59999 5.52868 7.59999 5.89999C7.59999 6.27129 7.74749 6.62739 8.01004 6.88994C8.27259 7.15249 8.62869 7.29999 8.99999 7.29999C9.37129 7.29999 9.72739 7.15249 9.98994 6.88994ZM8.09999 8.09999C7.72868 8.09999 7.37259 8.24749 7.11004 8.51004C6.84749 8.77259 6.69999 9.12868 6.69999 9.49999C6.69999 9.87129 6.84749 10.2274 7.11004 10.4899C7.25056 10.6305 7.41788 10.738 7.59999 10.8077V13.1C7.59999 13.4713 7.74749 13.8274 8.01004 14.0899C8.27259 14.3525 8.62868 14.5 8.99999 14.5H9.89999C10.2713 14.5 10.6274 14.3525 10.8899 14.0899C11.1525 13.8274 11.3 13.4713 11.3 13.1C11.3 12.7287 11.1525 12.3726 10.8899 12.11C10.7494 11.9695 10.5821 11.8619 10.4 11.7923V9.49999C10.4 9.12869 10.2525 8.77259 9.98994 8.51004C9.72739 8.24749 9.37129 8.09999 8.99999 8.09999H8.09999Z" fill="#9CA3AF" stroke="#9CA3AF"/>
        </g>
    </symbol>

    <!-- chevron-down-gray  -->
    <symbol id="chevron-down-gray" width="30" height="30" viewBox="0 0 30 30" fill="none" xmlns="http://www.w3.org/2000/svg">
        <path fill-rule="evenodd" clip-rule="evenodd" d="M5.293 7.79299C5.48053 7.60552 5.73484 7.5002 6 7.5002C6.26516 7.5002 6.51947 7.60552 6.707 7.79299L10 11.086L13.293 7.79299C13.3852 7.69748 13.4956 7.6213 13.6176 7.56889C13.7396 7.51648 13.8708 7.48889 14.0036 7.48774C14.1364 7.48659 14.2681 7.51189 14.391 7.56217C14.5139 7.61245 14.6255 7.6867 14.7194 7.78059C14.8133 7.87449 14.8875 7.98614 14.9378 8.10904C14.9881 8.23193 15.0134 8.36361 15.0123 8.49639C15.0111 8.62917 14.9835 8.76039 14.9311 8.88239C14.8787 9.0044 14.8025 9.11474 14.707 9.20699L10.707 13.207C10.5195 13.3945 10.2652 13.4998 10 13.4998C9.73484 13.4998 9.48053 13.3945 9.293 13.207L5.293 9.20699C5.10553 9.01946 5.00021 8.76515 5.00021 8.49999C5.00021 8.23483 5.10553 7.98052 5.293 7.79299Z" fill="#9CA3AF"></path>
    </symbol>

    <!-- globa-icon -->
    <symbol id='globa-icon' xmlns="http://www.w3.org/2000/svg" width="12" height="12" viewBox="0 0 12 12" fill="none">
        <path fill-rule="evenodd" clip-rule="evenodd" d="M1.8581 5.46229H3.2203C3.2826 4.38009 3.4884 3.38329 3.8062 2.57969C3.29451 2.89323 2.85589 3.31272 2.51987 3.80994C2.18384 4.30716 1.95819 4.87057 1.8581 5.46229ZM6 0.562286C4.51479 0.562286 3.09041 1.15228 2.0402 2.20249C0.99 3.25269 0.400002 4.67707 0.400002 6.16229C0.400002 7.6475 0.99 9.07188 2.0402 10.1221C3.09041 11.1723 4.51479 11.7623 6 11.7623C7.48521 11.7623 8.9096 11.1723 9.9598 10.1221C11.01 9.07188 11.6 7.6475 11.6 6.16229C11.6 4.67707 11.01 3.25269 9.9598 2.20249C8.9096 1.15228 7.48521 0.562286 6 0.562286ZM6 1.96229C5.9468 1.96229 5.8376 1.98469 5.6745 2.14569C5.5079 2.30949 5.3266 2.58179 5.1586 2.97309C4.8863 3.60799 4.6875 4.47249 4.6224 5.46229H7.3776C7.3125 4.47249 7.1137 3.60799 6.8414 2.97309C6.6734 2.58109 6.4914 2.30949 6.3255 2.14569C6.1624 1.98469 6.0532 1.96229 6 1.96229ZM8.7797 5.46229C8.7174 4.38009 8.5116 3.38329 8.1938 2.57969C8.7055 2.89323 9.14411 3.31272 9.48014 3.80994C9.81617 4.30716 10.0418 4.87057 10.1419 5.46229H8.7797ZM7.3776 6.86229H4.6224C4.6875 7.85209 4.8863 8.71659 5.1586 9.35149C5.3266 9.74349 5.5086 10.0151 5.6745 10.1789C5.8376 10.3399 5.9468 10.3623 6 10.3623C6.0532 10.3623 6.1624 10.3399 6.3255 10.1789C6.4921 10.0151 6.6741 9.74279 6.8414 9.35149C7.1137 8.71659 7.3125 7.85209 7.3776 6.86229ZM8.1938 9.74489C8.5116 8.94199 8.7174 7.94449 8.7797 6.86229H10.1419C10.0418 7.454 9.81617 8.01742 9.48014 8.51463C9.14411 9.01185 8.7055 9.43134 8.1938 9.74489ZM3.8062 9.74489C3.4884 8.94129 3.2826 7.94449 3.221 6.86229H1.8581C1.95819 7.454 2.18384 8.01742 2.51987 8.51463C2.85589 9.01185 3.29451 9.43134 3.8062 9.74489Z" fill="white"/>
    </symbol>

    <!-- chevron-down-black -->
    <symbol id="chevron-down-black" xmlns="http://www.w3.org/2000/svg" width="14" height="14" viewBox="0 0 14 14" fill="none">
        <path d="M11.0833 5.25L7 9.33333L2.91667 5.25" stroke="#111928" stroke-width="2" stroke-linecap="round" stroke-linejoin="round"/>
    </symbol>

    <!-- fire -->
    <symbol id="fire" xmlns="http://www.w3.org/2000/svg" width="14" height="14" viewBox="0 0 14 14" fill="none">
        <g id="fire-1">
        <path id="Vector" fill-rule="evenodd" clip-rule="evenodd" d="M8.23 1.42377C8.4239 1.47487 8.5863 1.60716 8.6766 1.78706C9.0147 2.46396 9.2674 2.87488 9.5215 3.20808C9.7791 3.54548 10.0507 3.82126 10.4651 4.23496C11.4213 5.19186 11.9001 6.44697 11.9001 7.69997C11.9001 8.95297 11.4213 10.2081 10.4651 11.165C8.55129 13.0781 5.4489 13.0781 3.5351 11.165C2.5789 10.2081 2.1001 8.95297 2.1001 7.69997C2.1001 6.44697 2.5789 5.19186 3.5351 4.23496C3.7353 4.03476 4.0363 3.97526 4.2981 4.08376C4.5599 4.19156 4.73 4.44708 4.73 4.72988C4.73 5.51388 4.779 6.11098 5.0086 6.58768C5.1346 6.84948 5.3313 7.10569 5.6701 7.33459C5.7513 6.59189 5.8997 5.68678 6.0999 4.82858C6.2574 4.15238 6.45339 3.47757 6.68719 2.91477C6.80409 2.63267 6.9364 2.36525 7.0862 2.13355C7.2318 1.90815 7.4194 1.67929 7.6616 1.51759C7.8289 1.40629 8.0361 1.37197 8.23 1.42377ZM8.4848 10.5847C7.6651 11.4051 6.3351 11.4051 5.5154 10.5847C5.1052 10.1752 4.9001 9.63757 4.9001 9.09997C4.9001 9.09997 5.5154 9.44997 6.6501 9.44997C6.6501 8.74997 7.0001 6.64997 7.5251 6.29997C7.8751 6.99997 8.0753 7.20509 8.4848 7.61529C8.895 8.02479 9.1001 8.56237 9.1001 9.09997C9.1001 9.63757 8.895 10.1752 8.4848 10.5847Z" fill="#111928"/>
        </g>
    </symbol>
        <!-- questions -->
    <symbol id="questions" class="shrink-0 w-5 h-5" aria-hidden="true" fill="currentColor" viewBox="0 0 20 20" xmlns="http://www.w3.org/2000/svg">
        <path fill-rule="evenodd" d="M18 10a8 8 0 11-16 0 8 8 0 0116 0zm-8-3a1 1 0 00-.867.5 1 1 0 11-1.731-1A3 3 0 0113 8a3.001 3.001 0 01-2 2.83V11a1 1 0 11-2 0v-1a1 1 0 011-1 1 1 0 100-2zm0 8a1 1 0 100-2 1 1 0 000 2z" clip-rule="evenodd" fill="#9CA3AF">
        </path>
    </symbol>

   <!--  синяя лампочка на странице поп авто -->
    <symbol id="blue-light" xmlns="http://www.w3.org/2000/svg" width="10" height="12" viewBox="0 0 10 12" fill="none">
        <path d="M6.20005 10.8H3.80005C3.64092 10.8 3.48831 10.8632 3.37578 10.9757C3.26326 11.0883 3.20005 11.2409 3.20005 11.4C3.20005 11.5591 3.26326 11.7117 3.37578 11.8243C3.48831 11.9368 3.64092 12 3.80005 12H6.20005C6.35918 12 6.51179 11.9368 6.62431 11.8243C6.73683 11.7117 6.80005 11.5591 6.80005 11.4C6.80005 11.2409 6.73683 11.0883 6.62431 10.9757C6.51179 10.8632 6.35918 10.8 6.20005 10.8Z" fill="#3F83F8"/>
        <path d="M5.00005 0C3.88658 0.00142885 2.81912 0.444386 2.03178 1.23173C1.24444 2.01907 0.801478 3.08653 0.800049 4.2C0.849406 5.35377 1.32361 6.44856 2.13145 7.2738C2.70505 7.9908 3.20005 8.6106 3.20005 9.6C3.20005 9.75913 3.26326 9.91174 3.37578 10.0243C3.48831 10.1368 3.64092 10.2 3.80005 10.2H6.20005C6.35918 10.2 6.51179 10.1368 6.62431 10.0243C6.73683 9.91174 6.80005 9.75913 6.80005 9.6C6.80005 8.58 7.29325 7.98 7.86445 7.2792C8.68342 6.4589 9.16073 5.35847 9.20005 4.2C9.19862 3.08653 8.75566 2.01907 7.96832 1.23173C7.18098 0.444386 6.11352 0.00142885 5.00005 0ZM5.00005 3C4.68179 3 4.37656 3.12643 4.15152 3.35147C3.92648 3.57652 3.80005 3.88174 3.80005 4.2C3.80005 4.35913 3.73683 4.51174 3.62431 4.62426C3.51179 4.73679 3.35918 4.8 3.20005 4.8C3.04092 4.8 2.88831 4.73679 2.77578 4.62426C2.66326 4.51174 2.60005 4.35913 2.60005 4.2C2.60005 3.56348 2.85291 2.95303 3.30299 2.50294C3.75308 2.05286 4.36353 1.8 5.00005 1.8C5.15918 1.8 5.31179 1.86321 5.42431 1.97574C5.53683 2.08826 5.60005 2.24087 5.60005 2.4C5.60005 2.55913 5.53683 2.71174 5.42431 2.82426C5.31179 2.93679 5.15918 3 5.00005 3Z" fill="#3F83F8"/>
    </symbol>

    <!-- вин код на странице поп авто -->
    <symbol id="id-num" xmlns="http://www.w3.org/2000/svg" width="18" height="20" viewBox="0 0 18 20" fill="none">
        <path
            d="M15.3198 0H12.125V5C12.125 6.103 11.1906 7 10.0417 7H4.83334V14C4.83334 15.103 5.73646 16 6.84688 16H15.3198C16.4302 16 17.3333 15.103 17.3333 14V2C17.3333 0.897 16.4302 0 15.3198 0Z"
            fill="#1C64F2" />
        <path
            d="M10.0417 5V0.13C9.53959 0.268 9.07396 0.514 8.6948 0.879L5.74896 3.707C5.36875 4.071 5.1125 4.518 4.96876 5H10.0417Z"
            fill="#1C64F2" />
        <path
            d="M13.1667 17H11.0833V18H2.75001L2.74896 6H3.79167V4H2.75001C1.60105 4 0.666672 4.897 0.666672 6V18C0.666672 19.103 1.5698 20 2.68021 20H11.1177C11.6875 20 12.2198 19.783 12.6156 19.39C13.0115 18.997 13.1667 18.552 13.1667 17.933C13.1667 17.909 13.1667 17 13.1667 17Z"
            fill="#1C64F2" />
    </symbol>
    <!-- иконка зеленая на странице попап авто гуд -->
    <symbol id="good" xmlns="http://www.w3.org/2000/svg" width="10" height="10" viewBox="0 0 10 10" fill="none">
         <path d="M9.5636 3.94692L9.11776 3.50051C9.02343 3.40666 8.9718 3.28153 8.9718 3.14894V2.51732C8.9718 1.69601 8.30355 1.02763 7.48238 1.02763H6.85086C6.72029 1.02763 6.5922 0.974501 6.49985 0.882141L6.05352 0.435733C5.47264 -0.145244 4.52835 -0.145244 3.94747 0.435733L3.50015 0.882141C3.4078 0.974501 3.27971 1.02763 3.14914 1.02763H2.51763C1.69646 1.02763 1.0282 1.69601 1.0282 2.51732V3.14894C1.0282 3.28153 0.976566 3.40666 0.882733 3.50051L0.436402 3.94642C0.1549 4.22797 0 4.60238 0 5.00012C0 5.39787 0.155397 5.77228 0.436402 6.05333L0.882236 6.49974C0.976566 6.59359 1.0282 6.71872 1.0282 6.8513V7.48293C1.0282 8.30424 1.69646 8.97261 2.51763 8.97261H3.14914C3.27971 8.97261 3.4078 9.02575 3.50015 9.11811L3.94648 9.56501C4.23692 9.855 4.61821 10 4.9995 10C5.3808 10 5.76209 9.855 6.05253 9.56452L6.49886 9.11811C6.5922 9.02575 6.72029 8.97261 6.85086 8.97261H7.48238C8.30355 8.97261 8.9718 8.30424 8.9718 7.48293V6.8513C8.9718 6.71872 9.02343 6.59359 9.11776 6.49974L9.5636 6.05383C9.8446 5.77228 10 5.39837 10 5.00012C10 4.60188 9.8451 4.22797 9.5636 3.94692ZM7.26144 4.42014L4.28259 6.40639C4.19869 6.4625 4.10237 6.48981 4.00705 6.48981C3.87896 6.48981 3.75186 6.44015 3.65604 6.34432L2.66309 5.35119C2.46897 5.15704 2.46897 4.84321 2.66309 4.64906C2.85721 4.4549 3.17099 4.4549 3.36511 4.64906L4.0701 5.35417L6.71036 3.59386C6.93923 3.44142 7.24705 3.50299 7.39897 3.73141C7.55139 3.95983 7.48982 4.26819 7.26144 4.42014Z" fill="#0E9F6E"/>
    </symbol>

 <!--  красная лампочка на странице поп авто -->
    <symbol id="red-light"  xmlns="http://www.w3.org/2000/svg" width="8" height="10" viewBox="0 0 8 10" fill="none">
        <path d="M5 9H3C2.86739 9 2.74021 9.05268 2.64645 9.14645C2.55268 9.24021 2.5 9.36739 2.5 9.5C2.5 9.63261 2.55268 9.75979 2.64645 9.85355C2.74021 9.94732 2.86739 10 3 10H5C5.13261 10 5.25979 9.94732 5.35355 9.85355C5.44732 9.75979 5.5 9.63261 5.5 9.5C5.5 9.36739 5.44732 9.24021 5.35355 9.14645C5.25979 9.05268 5.13261 9 5 9Z" fill="#FF5A1F"/>
        <path d="M4 0C3.07211 0.00119071 2.18256 0.370322 1.52644 1.02644C0.870322 1.68256 0.501191 2.57211 0.5 3.5C0.541131 4.46148 0.936298 5.3738 1.6095 6.0615C2.0875 6.659 2.5 7.1755 2.5 8C2.5 8.13261 2.55268 8.25979 2.64645 8.35355C2.74021 8.44732 2.86739 8.5 3 8.5H5C5.13261 8.5 5.25979 8.44732 5.35355 8.35355C5.44732 8.25979 5.5 8.13261 5.5 8C5.5 7.15 5.911 6.65 6.387 6.066C7.06947 5.38242 7.46723 4.46539 7.5 3.5C7.49881 2.57211 7.12968 1.68256 6.47356 1.02644C5.81744 0.370322 4.92789 0.00119071 4 0ZM4 2.5C3.73478 2.5 3.48043 2.60536 3.29289 2.79289C3.10536 2.98043 3 3.23478 3 3.5C3 3.63261 2.94732 3.75979 2.85355 3.85355C2.75979 3.94732 2.63261 4 2.5 4C2.36739 4 2.24021 3.94732 2.14645 3.85355C2.05268 3.75979 2 3.63261 2 3.5C2 2.96957 2.21071 2.46086 2.58579 2.08579C2.96086 1.71071 3.46957 1.5 4 1.5C4.13261 1.5 4.25979 1.55268 4.35355 1.64645C4.44732 1.74021 4.5 1.86739 4.5 2C4.5 2.13261 4.44732 2.25979 4.35355 2.35355C4.25979 2.44732 4.13261 2.5 4 2.5Z" fill="#FF5A1F"/>
    </symbol>

    <!-- инфа зеленая стра поп авто -->
    <symbol id='green-info' xmlns="http://www.w3.org/2000/svg" width="16" height="16" viewBox="0 0 16 16" fill="none">
        <path d="M8 0C6.41775 0 4.87103 0.469192 3.55544 1.34824C2.23985 2.22729 1.21447 3.47672 0.608967 4.93853C0.00346627 6.40034 -0.15496 8.00887 0.153721 9.56072C0.462403 11.1126 1.22433 12.538 2.34315 13.6569C3.46197 14.7757 4.88743 15.5376 6.43928 15.8463C7.99113 16.155 9.59966 15.9965 11.0615 15.391C12.5233 14.7855 13.7727 13.7602 14.6518 12.4446C15.5308 11.129 16 9.58225 16 8C15.9977 5.87898 15.1541 3.8455 13.6543 2.34572C12.1545 0.845932 10.121 0.00232928 8 0V0ZM7.6 3.2C7.83734 3.2 8.06935 3.27038 8.26669 3.40224C8.46402 3.53409 8.61783 3.72151 8.70866 3.94078C8.79948 4.16005 8.82325 4.40133 8.77694 4.63411C8.73064 4.86688 8.61635 5.0807 8.44853 5.24853C8.28071 5.41635 8.06689 5.53064 7.83411 5.57694C7.60133 5.62324 7.36005 5.59948 7.14078 5.50865C6.92151 5.41783 6.7341 5.26402 6.60224 5.06668C6.47038 4.86934 6.4 4.63734 6.4 4.4C6.4 4.08174 6.52643 3.77651 6.75147 3.55147C6.97652 3.32643 7.28174 3.2 7.6 3.2ZM9.6 12H6.4C6.18783 12 5.98435 11.9157 5.83432 11.7657C5.68429 11.6157 5.6 11.4122 5.6 11.2C5.6 10.9878 5.68429 10.7843 5.83432 10.6343C5.98435 10.4843 6.18783 10.4 6.4 10.4H7.2V8H6.4C6.18783 8 5.98435 7.91571 5.83432 7.76568C5.68429 7.61565 5.6 7.41217 5.6 7.2C5.6 6.98782 5.68429 6.78434 5.83432 6.63431C5.98435 6.48428 6.18783 6.4 6.4 6.4H8C8.21218 6.4 8.41566 6.48428 8.56569 6.63431C8.71572 6.78434 8.8 6.98782 8.8 7.2V10.4H9.6C9.81217 10.4 10.0157 10.4843 10.1657 10.6343C10.3157 10.7843 10.4 10.9878 10.4 11.2C10.4 11.4122 10.3157 11.6157 10.1657 11.7657C10.0157 11.9157 9.81217 12 9.6 12Z" fill="#057A55"/>
    </symbol>

    <!-- сообщение зеленая стра поп авто -->
    <symbol id='message-info' xmlns="http://www.w3.org/2000/svg" width="20" height="20" viewBox="0 0 20 20" fill="none">
        <path d="M9 10.5H8.79289L8.64645 10.6464L6.5 12.7929V11V10.5H6H4C3.60218 10.5 3.22064 10.342 2.93934 10.0607C2.65804 9.77936 2.5 9.39782 2.5 9V5C2.5 4.60218 2.65804 4.22064 2.93934 3.93934C3.22064 3.65804 3.60218 3.5 4 3.5H11C11.3978 3.5 11.7794 3.65804 12.0607 3.93934C12.342 4.22064 12.5 4.60218 12.5 5V9C12.5 9.39782 12.342 9.77935 12.0607 10.0607C11.7794 10.342 11.3978 10.5 11 10.5H9Z" fill="#0E9F6E" stroke="#0E9F6E"/>
        <path d="M15 7V9C15 10.0609 14.5786 11.0783 13.8284 11.8284C13.0783 12.5786 12.0609 13 11 13H9.82801L8.06201 14.767C8.34201 14.916 8.66101 15 9.00001 15H11L14 18V15H16C16.5304 15 17.0392 14.7893 17.4142 14.4142C17.7893 14.0391 18 13.5304 18 13V9C18 8.46957 17.7893 7.96086 17.4142 7.58579C17.0392 7.21071 16.5304 7 16 7H15Z" fill="#0E9F6E"/>
    </symbol>
    
    
    <!-- черные часы в поп авто  -->
    <symbol id="black-watch" xmlns="http://www.w3.org/2000/svg" width="13" height="12" viewBox="0 0 13 12" fill="none">
        <path fill-rule="evenodd" clip-rule="evenodd" d="M6.50002 11.6C7.98524 11.6 9.40962 11.01 10.4598 9.95982C11.51 8.90962 12.1 7.48524 12.1 6.00002C12.1 4.51481 11.51 3.09043 10.4598 2.04023C9.40962 0.990023 7.98524 0.400024 6.50002 0.400024C5.01481 0.400024 3.59043 0.990023 2.54023 2.04023C1.49002 3.09043 0.900024 4.51481 0.900024 6.00002C0.900024 7.48524 1.49002 8.90962 2.54023 9.95982C3.59043 11.01 5.01481 11.6 6.50002 11.6ZM7.20002 3.20002C7.20002 3.01437 7.12628 2.83633 6.995 2.70505C6.86372 2.57377 6.68568 2.50002 6.50002 2.50002C6.31437 2.50002 6.13633 2.57377 6.00505 2.70505C5.87377 2.83633 5.80002 3.01437 5.80002 3.20002V6.00002C5.80006 6.18566 5.87384 6.36368 6.00513 6.49492L7.98472 8.47523C8.04976 8.54026 8.12697 8.59185 8.21195 8.62705C8.29692 8.66225 8.388 8.68036 8.47997 8.68036C8.57195 8.68036 8.66303 8.66225 8.748 8.62705C8.83298 8.59185 8.91019 8.54026 8.97523 8.47523C9.04026 8.41019 9.09185 8.33298 9.12705 8.248C9.16225 8.16303 9.18036 8.07195 9.18036 7.97997C9.18036 7.888 9.16225 7.79692 9.12705 7.71195C9.09185 7.62697 9.04026 7.54976 8.97523 7.48472L7.20002 5.71023V3.20002Z" fill="#111928"/>
    </symbol>

   <!-- блокнот белый на поп авто   -->
    <symbol id="white-notebook" xmlns="http://www.w3.org/2000/svg" width="10" height="13" viewBox="0 0 10 13" fill="none">
        <path fill-rule="evenodd" clip-rule="evenodd" d="M0.199951 1.69998C0.199951 1.27563 0.368522 0.868663 0.66858 0.568605C0.968638 0.268546 1.3756 0.0999756 1.79995 0.0999756H5.46875C5.89306 0.100066 6.29996 0.268697 6.59995 0.568776L9.33115 3.29998C9.63123 3.59996 9.79986 4.00686 9.79995 4.43118V11.3C9.79995 11.7243 9.63138 12.1313 9.33132 12.4313C9.03126 12.7314 8.6243 12.9 8.19995 12.9H1.79995C1.3756 12.9 0.968638 12.7314 0.66858 12.4313C0.368522 12.1313 0.199951 11.7243 0.199951 11.3V1.69998ZM1.79995 6.49998C1.79995 6.2878 1.88424 6.08432 2.03427 5.93429C2.1843 5.78426 2.38778 5.69998 2.59995 5.69998H7.39995C7.61212 5.69998 7.81561 5.78426 7.96564 5.93429C8.11567 6.08432 8.19995 6.2878 8.19995 6.49998C8.19995 6.71215 8.11567 6.91563 7.96564 7.06566C7.81561 7.21569 7.61212 7.29998 7.39995 7.29998H2.59995C2.38778 7.29998 2.1843 7.21569 2.03427 7.06566C1.88424 6.91563 1.79995 6.71215 1.79995 6.49998ZM2.59995 8.89997C2.38778 8.89997 2.1843 8.98426 2.03427 9.13429C1.88424 9.28432 1.79995 9.4878 1.79995 9.69998C1.79995 9.91215 1.88424 10.1156 2.03427 10.2657C2.1843 10.4157 2.38778 10.5 2.59995 10.5H7.39995C7.61212 10.5 7.81561 10.4157 7.96564 10.2657C8.11567 10.1156 8.19995 9.91215 8.19995 9.69998C8.19995 9.4878 8.11567 9.28432 7.96564 9.13429C7.81561 8.98426 7.61212 8.89997 7.39995 8.89997H2.59995Z" fill="white"/>
    </symbol>


       <!-- Contact our support -->
      <symbol id="support" width="16" height="16" viewBox="0 0 16 16" fill="none"
            xmlns="http://www.w3.org/2000/svg">
            <path
                d="M7.9999 9.60002C8.42425 9.60002 8.83121 9.43145 9.13127 9.1314C9.43133 8.83134 9.5999 8.42437 9.5999 8.00002C9.5999 7.57568 9.43133 7.16871 9.13127 6.86865C8.83121 6.5686 8.42425 6.40002 7.9999 6.40002C7.57556 6.40002 7.16859 6.5686 6.86853 6.86865C6.56847 7.16871 6.3999 7.57568 6.3999 8.00002C6.3999 8.42437 6.56847 8.83134 6.86853 9.1314C7.16859 9.43145 7.57556 9.60002 7.9999 9.60002Z"
                fill="white" />
            <path fill-rule="evenodd" clip-rule="evenodd"
                d="M0.366455 8.00002C1.38566 4.75442 4.41765 2.40002 8.00005 2.40002C11.5825 2.40002 14.6145 4.75442 15.6337 8.00002C14.6145 11.2456 11.5825 13.6 8.00005 13.6C4.41765 13.6 1.38566 11.2456 0.366455 8.00002ZM11.2001 8.00002C11.2001 8.84872 10.8629 9.66265 10.2628 10.2628C9.66268 10.8629 8.84875 11.2 8.00005 11.2C7.15136 11.2 6.33743 10.8629 5.73731 10.2628C5.1372 9.66265 4.80006 8.84872 4.80006 8.00002C4.80006 7.15133 5.1372 6.3374 5.73731 5.73728C6.33743 5.13717 7.15136 4.80002 8.00005 4.80002C8.84875 4.80002 9.66268 5.13717 10.2628 5.73728C10.8629 6.3374 11.2001 7.15133 11.2001 8.00002Z"
                fill="white" />
        </symbol>

      <!-- clipboard-black --> 
        <symbol id="clipboard-black" xmlns="http://www.w3.org/2000/svg" width="12" height="12" viewBox="0 0 20 20" fill="none">
             <path d="M16.3726 2H13.4315C13.4315 1.46957 13.2249 0.960859 12.8572 0.585786C12.4894 0.210714 11.9907 0 11.4707 0H8.52949C8.00946 0 7.51073 0.210714 7.14301 0.585786C6.77529 0.960859 6.56871 1.46957 6.56871 2H3.62753C3.1075 2 2.60877 2.21071 2.24105 2.58579C1.87333 2.96086 1.66675 3.46957 1.66675 4V18C1.66675 18.5304 1.87333 19.0391 2.24105 19.4142C2.60877 19.7893 3.1075 20 3.62753 20H16.3726C16.8927 20 17.3914 19.7893 17.7591 19.4142C18.1268 19.0391 18.3334 18.5304 18.3334 18V4C18.3334 3.46957 18.1268 2.96086 17.7591 2.58579C17.3914 2.21071 16.8927 2 16.3726 2ZM11.4707 2V5H8.52949V2H11.4707ZM13.4315 15H6.56871C6.30869 15 6.05933 14.8946 5.87547 14.7071C5.69161 14.5196 5.58832 14.2652 5.58832 14C5.58832 13.7348 5.69161 13.4804 5.87547 13.2929C6.05933 13.1054 6.30869 13 6.56871 13H13.4315C13.6915 13 13.9408 13.1054 14.1247 13.2929C14.3086 13.4804 14.4118 13.7348 14.4118 14C14.4118 14.2652 14.3086 14.5196 14.1247 14.7071C13.9408 14.8946 13.6915 15 13.4315 15ZM13.4315 11H6.56871C6.30869 11 6.05933 10.8946 5.87547 10.7071C5.69161 10.5196 5.58832 10.2652 5.58832 10C5.58832 9.73478 5.69161 9.48043 5.87547 9.29289C6.05933 9.10536 6.30869 9 6.56871 9H13.4315C13.6915 9 13.9408 9.10536 14.1247 9.29289C14.3086 9.48043 14.4118 9.73478 14.4118 10C14.4118 10.2652 14.3086 10.5196 14.1247 10.7071C13.9408 10.8946 13.6915 11 13.4315 11Z" fill="#1F2A37"/>
        </symbol>
</svg>





